<svg width="30" height="19" viewBox="0 0 30 19" fill="none" xmlns="http://www.w3.org/2000/svg">
<path d="M2.33333 18.25C1.88472 18.25 1.50894 18.11 1.206 17.83C0.902 17.551 0.75 17.2049 0.75 16.7917C0.75 16.3785 0.902 16.0324 1.206 15.7533C1.50894 15.4733 1.88472 15.3333 2.33333 15.3333H27.6667C28.1153 15.3333 28.4911 15.4733 28.794 15.7533C29.098 16.0324 29.25 16.3785 29.25 16.7917C29.25 17.2049 29.098 17.551 28.794 17.83C28.4911 18.11 28.1153 18.25 27.6667 18.25H2.33333ZM2.33333 10.9583C1.88472 10.9583 1.50894 10.8183 1.206 10.5383C0.902 10.2593 0.75 9.91319 0.75 9.5C0.75 9.08681 0.902 8.74021 1.206 8.46021C1.50894 8.18118 1.88472 8.04167 2.33333 8.04167H27.6667C28.1153 8.04167 28.4911 8.18118 28.794 8.46021C29.098 8.74021 29.25 9.08681 29.25 9.5C29.25 9.91319 29.098 10.2593 28.794 10.5383C28.4911 10.8183 28.1153 10.9583 27.6667 10.9583H2.33333ZM2.33333 3.66667C1.88472 3.66667 1.50894 3.52715 1.206 3.24812C0.902 2.96812 0.75 2.62153 0.75 2.20833C0.75 1.79514 0.902 1.44854 1.206 1.16854C1.50894 0.889514 1.88472 0.75 2.33333 0.75H27.6667C28.1153 0.75 28.4911 0.889514 28.794 1.16854C29.098 1.44854 29.25 1.79514 29.25 2.20833C29.25 2.62153 29.098 2.96812 28.794 3.24812C28.4911 3.52715 28.1153 3.66667 27.6667 3.66667H2.33333Z" fill="#333333"/>
</svg>
