<svg width="35" height="32" viewBox="0 0 35 32" fill="none" xmlns="http://www.w3.org/2000/svg">
<path d="M10.25 31.6667C9.31042 31.6667 8.50636 31.3569 7.83783 30.7373C7.16817 30.1166 6.83333 29.3708 6.83333 28.5C6.83333 27.6292 7.16817 26.8834 7.83783 26.2628C8.50636 25.6431 9.31042 25.3333 10.25 25.3333C11.1896 25.3333 11.9936 25.6431 12.6622 26.2628C13.3318 26.8834 13.6667 27.6292 13.6667 28.5C13.6667 29.3708 13.3318 30.1166 12.6622 30.7373C11.9936 31.3569 11.1896 31.6667 10.25 31.6667ZM27.3333 31.6667C26.3937 31.6667 25.5897 31.3569 24.9212 30.7373C24.2515 30.1166 23.9167 29.3708 23.9167 28.5C23.9167 27.6292 24.2515 26.8834 24.9212 26.2628C25.5897 25.6431 26.3937 25.3333 27.3333 25.3333C28.2729 25.3333 29.0775 25.6431 29.7472 26.2628C30.4157 26.8834 30.75 27.6292 30.75 28.5C30.75 29.3708 30.4157 30.1166 29.7472 30.7373C29.0775 31.3569 28.2729 31.6667 27.3333 31.6667ZM7.175 3.16667H32.3729C33.0278 3.16667 33.526 3.43689 33.8677 3.97733C34.2094 4.51883 34.2236 5.06667 33.9104 5.62083L27.8458 15.7542C27.5326 16.2819 27.1124 16.691 26.5851 16.9813C26.0589 17.2715 25.4826 17.4167 24.8562 17.4167H12.1292L10.25 20.5833H30.75V23.75H10.25C8.96875 23.75 8.00069 23.2286 7.34583 22.1857C6.69097 21.1438 6.6625 20.1083 7.26042 19.0792L9.56667 15.2L3.41667 3.16667H0V0H5.55208L7.175 3.16667Z" fill="#1267E7"/>
</svg>
